<svg width="1024px" height="1024px" viewBox="0 0 1024 1024" version="1.1" xmlns="http://www.w3.org/2000/svg" xmlns:xlink="http://www.w3.org/1999/xlink">
    <!-- Generator: Sketch 48.1 (47250) - http://www.bohemiancoding.com/sketch -->
    <title>ios-1024</title>
    <desc>Created with Sketch.</desc>
    <defs>
        <rect id="path-1" x="0" y="0" width="1023.74816" height="1023.74816" rx="200"></rect>
    </defs>
    <g id="Latest-App-Store-icons" stroke="none" stroke-width="1" fill="none" fill-rule="evenodd">
        <g id="ios-1024">
            <g id="EU">
                <mask id="mask-2" fill="white">
                    <use xlink:href="#path-1"></use>
                </mask>
                <use id="Box-Copy" fill="#01C3A7" xlink:href="#path-1"></use>
                <path d="M794,744 C793.638095,718.702335 809.218948,699.034629 835,699 C863.90787,699.034629 876.361905,717.70839 876,742 L876,869 L936,869 L936,733 C936,684.755433 910.538598,646 856,646 C832.077234,646 805.151934,656.933477 794,679 L794,651 L734,651 L734,869 L794,869 L794,744 Z M635,651 L695,651 L695,869 L635,869 L635,651 Z M664,545 C683.973641,545 700,561.466838 700,582 C700,601.533162 683.973641,618 664,618 C643.469233,618 627,601.533162 627,582 C627,561.466838 643.469233,545 664,545 L664,545 L664,545 L664,545 Z M491,832 C471.40175,832 462,819.646677 462,807 C462,790.085628 474.089531,781.702321 489,780 L539,772 L539,782 C539,820.083465 515.720522,832 491,832 L491,832 L491,832 L491,832 Z M478,876 C510.479446,876 531.555277,860.918011 543,844 C542.765545,852.055713 543.612123,863.813791 545,870 L600,870 C598.615999,862.05694 596.999775,846.733553 596,835 L596,728 C596.999775,684.011064 570.997754,645 501,645 C441.888515,645 410.05944,682.681067 406,717 L459,728 C461.167012,708.842015 475.517121,692.440896 502,692 C526.620298,692.440896 538.727036,705.29753 539,721 C538.727036,728.348634 534.688527,734.559631 522,736 L468,744 C431.135271,749.639447 402,771.362726 402,810 C402,844.516892 430.684839,876 478,876 Z M385,710 C378.303076,708.493332 371.938728,708.334291 367,708 C336.226902,708.334291 310.349896,722.881952 310,770 L310,869 L251,869 L251,651 L308,651 L308,683 C321.849966,654.551036 351.854518,650 371,650 C375.504878,650 380.541218,650.631178 385,651 L385,710 Z M216,706 L147,706 C153.168748,702.371174 158.639796,697.968444 163,693 C173.870969,682.969587 182.503026,670.424442 187,655 L216,655 L216,706 Z M74,706 L74,655 L171,655 C165.092052,670.920209 155.178679,682.98254 142,692 C127.915802,700.384063 110.986879,705.131111 91,706 L74,706 Z M216,819 L216,868 C210.676782,870.453943 199.391807,873.935622 181,874 C139.481412,873.935622 112,849.147823 112,808 L112,720 L172,720 L172,797 C171.693178,815.855901 180.427323,821.822519 197,822 C204.392801,821.822519 212.889657,819.760887 216,819 Z M118,591 L118,621 C117.806452,628.883972 116.061807,636.240508 112,642 L172,642 L172,591 L118,591 Z" id="train" fill="#072456" mask="url(#mask-2)"></path>
            </g>
        </g>
    </g>
</svg>
